<?xml version="1.0" encoding="UTF-8" standalone="no"?>
<!DOCTYPE svg PUBLIC "-//W3C//DTD SVG 1.1//EN" "http://www.w3.org/Graphics/SVG/1.1/DTD/svg11.dtd">
<svg
   version="1.1"
   id="svg1"
   width="100"
   height="100"
   viewBox="0 0 100 100"
   xmlns="http://www.w3.org/2000/svg"
   xmlns:svg="http://www.w3.org/2000/svg">
   <!-- width="185.86719" -->
   <!-- height="186.04428" -->
   <!-- viewBox="0 0 185.86719 186.04427" -->
   <!-- transform="translate(-295.73242,-136.53388)" -->
  <g
     id="g1"
     transform="matrix(0.538,0,0,0.538,-159.1,-73.46)">
    <path
       id="path44"
       style="fill:currentColor;fill-opacity:1;fill-rule:evenodd;stroke:none"
       d="m 164.50001,491.47512 c -10.2,0.16675 -19.46631,-1.1917 -27.79981,-4.0752 h -16.99951 c -16.666,5.734 -37.068175,5.39951 -61.201175,-1.00049 l 0.75,-8.25 c 3.434,0.867 6.300098,-0.75009 8.600098,-4.85009 3.067,-17.5 10.233977,-26.29942 21.500977,-26.39942 l 11.49902,0.14941 c 11.6,1.533 19.18449,9.95098 22.75049,25.25098 0.1,2.367 1.61681,3.44903 4.54981,3.24903 h 0.0996 c 2.934,0.2 4.4498,-0.88203 4.5498,-3.24903 3.567,-15.3 11.15049,-23.71798 22.75049,-25.25098 l 11.50049,-0.14941 c 11.266,0.1 18.43251,8.89942 21.49951,26.39942 2.301,4.1 5.1671,5.71709 8.6001,4.85009 l 0.75,8.25 c -12.0665,3.2165 -23.1999,4.90894 -33.3999,5.07569 z M 96.9502,488.85158 c 12.567,-0.567 20.4331,-3.567 23.6001,-9 0.1,-13.601 -5.8832,-23.06785 -17.9502,-28.40185 L 88.7002,451.2007 c -9.9,1.133 -14.983489,10.46603 -15.250489,27.99903 0.3,5.834 8.133489,9.05085 23.500489,9.65185 z m 62.84912,-0.55224 c 15.367,-0.6 23.20049,-3.81493 23.50049,-9.64893 -0.267,-17.533 -5.35049,-26.86649 -15.25049,-28.00049 l -13.8999,0.25049 c -12.066,5.334 -18.04773,14.79893 -17.94873,28.39893 3.167,5.434 11.03163,8.434 23.59863,9 z"
       transform="matrix(1.3333333,0,0,-1.3333333,217.73307,894.20053)" />
    <path
       style="fill:currentColor;fill-opacity:1;fill-rule:evenodd;stroke:none"
       d="m 169.7,496.851 h -25.4 v 8.6 h 25.4 z"
       transform="matrix(1.3333333,0,0,-1.3333333,217.73307,894.20053)"
       id="path43" />
    <path
       style="fill:currentColor;fill-opacity:1;fill-rule:evenodd;stroke:none"
       d="m 168.7,518.851 c -13.4,16.866 -33.2,19.533 -59.4,8 l 5.4,-13.201 c -9.166,0.6 -17.1,3.667 -23.8,9.201 l -9.4,-26.801 -13.2,-2 c 0.7,10.801 4.1,20.467 10.2,29 l -12.6,0.95 11.2,11.05 -5.6,9.801 12.8,-3.601 12.2,18.4 0.4,-12.799 c 11.9,12.133 27.034,19.266 45.4,21.399 l -6,-9.2 c 24.766,0.533 43.167,-8.866 55.2,-28.199 l -11.6,-9.201 7.6,-26.799 -12.1,2.099 z"
       transform="matrix(1.3333333,0,0,-1.3333333,217.73307,894.20053)"
       id="path42" />
    <path
       style="fill:currentColor;fill-opacity:1;fill-rule:evenodd;stroke:none"
       d="M 113.7,496.25 H 87.1 v 9.2 h 26.6 z"
       transform="matrix(1.3333333,0,0,-1.3333333,217.73307,894.20053)"
       id="path39" />
    <path
       style="fill:currentColor;fill-opacity:1;fill-rule:evenodd;stroke:none"
       d="m 145.5,434.65 c -10.267,-5.966 -20.533,-7.433 -30.8,-4.4 l 0.7,3.25 c 9.333,-2.333 19.1,-0.35 29.3,5.95 z"
       transform="matrix(1.3333333,0,0,-1.3333333,217.73307,894.20053)"
       id="path37" />
    <path
       style="fill:#a9d81b;fill-opacity:1;fill-rule:evenodd;stroke:none"
       d="m 117.5,423.5 c -1.1,0 -2.033,0.383 -2.8,1.15 -0.766,0.767 -1.15,1.7 -1.15,2.8 0,1.1 0.384,2.033 1.15,2.8 0.767,0.767 1.7,1.15 2.8,1.15 1.101,0 2.033,-0.383 2.8,-1.15 0.766,-0.767 1.15,-1.7 1.15,-2.8 0,-1.1 -0.384,-2.033 -1.15,-2.8 -0.767,-0.767 -1.699,-1.15 -2.8,-1.15"
       transform="matrix(1.3333333,0,0,-1.3333333,275.39973,847.26693)"
       id="path48" />
    <path
       style="fill:currentColor;fill-opacity:1;fill-rule:evenodd;stroke:none"
       d="m 85.65,473.4 h 6.9 v 7.15 h 6.25 v -7.5 h 6.6 v -6.25 h -6.75 v -7.65 H 92.8 v 8 h -7.15 z"
       transform="matrix(1.3333333,0,0,-1.3333333,217.73307,894.20053)"
       id="path41" />
    <path
       style="fill:#e62224;fill-opacity:1;fill-rule:evenodd;stroke:none"
       d="m 117.5,431.4 c 1.1,0 2.033,-0.383 2.8,-1.15 0.766,-0.766 1.15,-1.7 1.15,-2.8 0,-1.099 -0.384,-2.033 -1.15,-2.8 -0.767,-0.766 -1.7,-1.15 -2.8,-1.15 -1.101,0 -2.033,0.384 -2.8,1.15 -0.766,0.767 -1.15,1.701 -1.15,2.8 0,1.1 0.384,2.034 1.15,2.8 0.767,0.767 1.699,1.15 2.8,1.15"
       transform="matrix(1.3333333,0,0,-1.3333333,285.9336,836.20053)"
       id="path47" />
    <path
       style="fill:#51ade5;fill-opacity:1;fill-rule:evenodd;stroke:none"
       d="m 113.55,433.05 c 0.767,-0.766 1.15,-1.7 1.15,-2.8 0,-1.1 -0.383,-2.033 -1.15,-2.8 -0.766,-0.766 -1.7,-1.15 -2.8,-1.15 -1.1,0 -2.034,0.384 -2.8,1.15 -0.767,0.767 -1.15,1.7 -1.15,2.8 0,1.1 0.383,2.034 1.15,2.8 0.766,0.767 1.7,1.15 2.8,1.15 1.1,0 2.034,-0.383 2.8,-1.15"
       transform="matrix(1.3333333,0,0,-1.3333333,273.13347,839.9336)"
       id="path46" />
    <path
       style="fill:#f8a00e;fill-opacity:1;fill-rule:evenodd;stroke:none"
       d="m 114.7,424.65 c -0.767,-0.767 -1.7,-1.15 -2.8,-1.15 -1.1,0 -2.033,0.383 -2.8,1.15 -0.767,0.767 -1.15,1.7 -1.15,2.8 0,1.1 0.383,2.033 1.15,2.8 0.767,0.767 1.7,1.15 2.8,1.15 1.1,0 2.033,-0.383 2.8,-1.15 0.766,-0.767 1.15,-1.7 1.15,-2.8 0,-1.1 -0.384,-2.033 -1.15,-2.8"
       transform="matrix(1.3333333,0,0,-1.3333333,282.13347,824.9336)"
       id="path45" />
  </g>
</svg>
